<svg width="142" height="19" viewBox="0 0 142 19" fill="none" xmlns="http://www.w3.org/2000/svg">
<path d="M3.99351e-06 0.479998H0.768004C2.032 0.479998 2.96 0.775998 3.552 1.368C4.144 1.944 4.44 2.8 4.44 3.936C4.44 4.592 4.248 5.224 3.864 5.832C3.48 6.424 3.016 6.824 2.472 7.032C3.848 7.256 4.912 7.832 5.664 8.76C6.416 9.688 6.792 10.904 6.792 12.408C6.792 13.608 6.528 14.672 6 15.6C5.472 16.512 4.744 17.224 3.816 17.736C2.904 18.232 1.888 18.48 0.768004 18.48H3.99351e-06V0.479998ZM0.960004 6.816C1.728 6.816 2.376 6.536 2.904 5.976C3.432 5.416 3.696 4.728 3.696 3.912C3.696 3 3.472 2.312 3.024 1.848C2.592 1.384 1.904 1.152 0.960004 1.152H0.768004V6.816H0.960004ZM0.960004 17.808C1.904 17.808 2.76 17.584 3.528 17.136C4.296 16.672 4.904 16.032 5.352 15.216C5.8 14.4 6.024 13.48 6.024 12.456C6.024 10.808 5.584 9.568 4.704 8.736C3.84 7.888 2.592 7.464 0.960004 7.464H0.768004V17.808H0.960004ZM9.67969 0.479998H16.1357V1.176H10.4717V10.968H15.1997V11.664H10.4717V17.784H16.1357V18.48H9.67969V0.479998ZM25.3043 1.176H17.3843V0.479998H26.5043L18.5603 17.784H26.4323V18.48H17.3843L25.3043 1.176ZM32.7133 18.816C30.7133 18.816 29.1613 17.992 28.0573 16.344V15.048C28.4893 16.008 29.1133 16.76 29.9293 17.304C30.7613 17.848 31.7533 18.12 32.9053 18.12C33.7053 18.12 34.4413 17.944 35.1133 17.592C35.8013 17.24 36.3453 16.744 36.7453 16.104C37.1453 15.464 37.3453 14.728 37.3453 13.896C37.3453 13.144 37.2173 12.496 36.9613 11.952C36.7053 11.408 36.2813 10.888 35.6893 10.392C35.0973 9.88 34.2413 9.28 33.1213 8.592L32.3533 8.112C31.6493 7.68 31.0813 7.296 30.6493 6.96C30.2173 6.624 29.8413 6.232 29.5213 5.784C29.1053 5.16 28.8973 4.44 28.8973 3.624C28.8973 2.536 29.2493 1.688 29.9533 1.08C30.6573 0.471999 31.5533 0.167999 32.6413 0.167999C34.1133 0.167999 35.2813 0.711999 36.1453 1.8V3.024C35.7773 2.352 35.2733 1.824 34.6333 1.44C33.9933 1.056 33.2893 0.863999 32.5213 0.863999C31.7213 0.863999 31.0493 1.112 30.5053 1.608C29.9613 2.104 29.6893 2.768 29.6893 3.6C29.6893 4.416 29.9373 5.12 30.4333 5.712C30.9453 6.288 31.8013 6.92 33.0013 7.608C34.4733 8.472 35.6173 9.256 36.4333 9.96C37.0093 10.488 37.4253 11.072 37.6813 11.712C37.9533 12.352 38.0893 13.064 38.0893 13.848C38.0893 14.84 37.8573 15.712 37.3933 16.464C36.9293 17.216 36.2893 17.8 35.4733 18.216C34.6573 18.616 33.7373 18.816 32.7133 18.816ZM42.3225 1.176H38.1705V0.479998H47.2185V1.176H43.1145V18.48H42.3225V1.176ZM49.6172 0.479998H50.6492C52.5212 0.479998 53.9612 0.975998 54.9692 1.968C55.9932 2.96 56.5052 4.376 56.5052 6.216C56.5052 7.272 56.2492 8.24 55.7372 9.12C55.2412 10 54.5612 10.696 53.6972 11.208C52.8332 11.704 51.8812 11.952 50.8412 11.952H50.6732L56.8652 18.48H55.8332L50.3852 12.768V18.48H49.6172V0.479998ZM50.8172 11.256C51.7292 11.256 52.5612 11.032 53.3132 10.584C54.0652 10.136 54.6572 9.536 55.0892 8.784C55.5212 8.016 55.7372 7.168 55.7372 6.24C55.7372 4.624 55.2972 3.376 54.4172 2.496C53.5532 1.616 52.3132 1.176 50.6972 1.176H50.3852V11.256H50.8172ZM59.5313 0.479998H65.9873V1.176H60.3233V10.968H65.0513V11.664H60.3233V17.784H65.9873V18.48H59.5313V0.479998ZM72.2758 18.816C70.2758 18.816 68.7238 17.992 67.6198 16.344V15.048C68.0518 16.008 68.6758 16.76 69.4918 17.304C70.3238 17.848 71.3158 18.12 72.4678 18.12C73.2678 18.12 74.0038 17.944 74.6758 17.592C75.3638 17.24 75.9078 16.744 76.3078 16.104C76.7078 15.464 76.9078 14.728 76.9078 13.896C76.9078 13.144 76.7798 12.496 76.5238 11.952C76.2678 11.408 75.8438 10.888 75.2518 10.392C74.6598 9.88 73.8038 9.28 72.6838 8.592L71.9158 8.112C71.2118 7.68 70.6438 7.296 70.2118 6.96C69.7798 6.624 69.4038 6.232 69.0838 5.784C68.6678 5.16 68.4598 4.44 68.4598 3.624C68.4598 2.536 68.8118 1.688 69.5158 1.08C70.2198 0.471999 71.1158 0.167999 72.2038 0.167999C73.6758 0.167999 74.8438 0.711999 75.7078 1.8V3.024C75.3398 2.352 74.8358 1.824 74.1958 1.44C73.5558 1.056 72.8518 0.863999 72.0838 0.863999C71.2838 0.863999 70.6118 1.112 70.0678 1.608C69.5238 2.104 69.2518 2.768 69.2518 3.6C69.2518 4.416 69.4998 5.12 69.9958 5.712C70.5078 6.288 71.3638 6.92 72.5638 7.608C74.0358 8.472 75.1798 9.256 75.9958 9.96C76.5718 10.488 76.9878 11.072 77.2438 11.712C77.5158 12.352 77.6518 13.064 77.6518 13.848C77.6518 14.84 77.4198 15.712 76.9558 16.464C76.4918 17.216 75.8518 17.8 75.0358 18.216C74.2198 18.616 73.2998 18.816 72.2758 18.816ZM89.1467 18.96C87.4667 18.96 85.9067 18.52 84.4667 17.64C83.0267 16.76 81.8827 15.592 81.0347 14.136C80.2027 12.664 79.7867 11.088 79.7867 9.408C79.7867 7.744 80.2107 6.192 81.0587 4.752C81.9067 3.296 83.0507 2.144 84.4907 1.296C85.9307 0.431999 87.4907 -1.43051e-06 89.1707 -1.43051e-06C90.8667 -1.43051e-06 92.4267 0.423999 93.8507 1.272C95.2747 2.12 96.4027 3.272 97.2347 4.728C98.0827 6.168 98.5067 7.728 98.5067 9.408C98.5067 11.136 98.0827 12.736 97.2347 14.208C96.4027 15.664 95.2667 16.824 93.8267 17.688C92.4027 18.536 90.8427 18.96 89.1467 18.96ZM89.1467 18.264C90.6827 18.264 92.1067 17.872 93.4187 17.088C94.7307 16.288 95.7707 15.216 96.5387 13.872C97.3227 12.512 97.7147 11.04 97.7147 9.456C97.7147 7.888 97.3307 6.432 96.5627 5.088C95.7947 3.744 94.7547 2.68 93.4427 1.896C92.1307 1.096 90.7067 0.695998 89.1707 0.695998C87.6187 0.695998 86.1867 1.096 84.8747 1.896C83.5627 2.68 82.5147 3.744 81.7307 5.088C80.9627 6.432 80.5787 7.888 80.5787 9.456C80.5787 11.04 80.9627 12.512 81.7307 13.872C82.5147 15.216 83.5627 16.288 84.8747 17.088C86.1867 17.872 87.6107 18.264 89.1467 18.264ZM114.437 18.792L110.645 9.984L106.805 18.792L98.9087 0.479998H99.7487L106.829 16.848L110.237 9.024L106.541 0.479998H107.357L110.717 8.232L114.101 0.479998H114.845L111.101 9.12L114.485 16.92L121.589 0.479998H122.429L114.437 18.792ZM132.201 18.96C130.521 18.96 128.961 18.52 127.521 17.64C126.081 16.76 124.937 15.592 124.089 14.136C123.257 12.664 122.841 11.088 122.841 9.408C122.841 7.744 123.265 6.192 124.113 4.752C124.961 3.296 126.105 2.144 127.545 1.296C128.985 0.431999 130.545 -1.43051e-06 132.225 -1.43051e-06C133.921 -1.43051e-06 135.481 0.423999 136.905 1.272C138.329 2.12 139.457 3.272 140.289 4.728C141.137 6.168 141.561 7.728 141.561 9.408C141.561 11.136 141.137 12.736 140.289 14.208C139.457 15.664 138.321 16.824 136.881 17.688C135.457 18.536 133.897 18.96 132.201 18.96ZM132.201 18.264C133.737 18.264 135.161 17.872 136.473 17.088C137.785 16.288 138.825 15.216 139.593 13.872C140.377 12.512 140.769 11.04 140.769 9.456C140.769 7.888 140.385 6.432 139.617 5.088C138.849 3.744 137.809 2.68 136.497 1.896C135.185 1.096 133.761 0.695998 132.225 0.695998C130.673 0.695998 129.241 1.096 127.929 1.896C126.617 2.68 125.569 3.744 124.785 5.088C124.017 6.432 123.633 7.888 123.633 9.456C123.633 11.04 124.017 12.512 124.785 13.872C125.569 15.216 126.617 16.288 127.929 17.088C129.241 17.872 130.665 18.264 132.201 18.264Z" fill="#E5AE31"/>
</svg>
